<mxfile host="app.diagrams.net" agent="Mozilla/5.0 (Windows NT 10.0; Win64; x64) AppleWebKit/537.36 (KHTML, like Gecko) Chrome/136.0.7103.48 Safari/537.36" version="28.2.7">
  <diagram name="第 1 页" id="VeWokI2u7tGiQCtw9pWb">
    <mxGraphModel dx="1418" dy="764" grid="1" gridSize="10" guides="1" tooltips="1" connect="1" arrows="1" fold="1" page="1" pageScale="1" pageWidth="827" pageHeight="1169" math="0" shadow="0">
      <root>
        <mxCell id="0" />
        <mxCell id="1" parent="0" />
        <mxCell id="9I3lM_An_QXeY1YcDZqy-1" value="&lt;b&gt;&amp;nbsp; &amp;nbsp; &amp;nbsp;系统架构&lt;/b&gt;" style="fillColor=#EFEBE9;strokeColor=none;shadow=0;fontSize=14;align=left;spacing=10;9E9E9E;verticalAlign=top;spacingTop=-4;fontStyle=0;spacingLeft=40;html=1;container=0;" vertex="1" parent="1">
          <mxGeometry x="210" y="980" width="970" height="810" as="geometry" />
        </mxCell>
        <mxCell id="9I3lM_An_QXeY1YcDZqy-2" value="" style="group" vertex="1" connectable="0" parent="1">
          <mxGeometry x="450" y="630" width="210" height="140" as="geometry" />
        </mxCell>
        <mxCell id="9I3lM_An_QXeY1YcDZqy-3" value="&lt;b&gt;业务集群2&lt;/b&gt;" style="fillColor=#F6F6F6;strokeColor=none;shadow=0;gradientColor=none;fontSize=14;align=left;spacing=10;fontColor=#717171;9E9E9E;verticalAlign=top;spacingTop=-4;fontStyle=0;spacingLeft=40;html=1;container=0;" vertex="1" parent="9I3lM_An_QXeY1YcDZqy-2">
          <mxGeometry width="210" height="140" as="geometry" />
        </mxCell>
        <mxCell id="9I3lM_An_QXeY1YcDZqy-4" value="" style="strokeColor=#dddddd;shadow=1;strokeWidth=1;rounded=1;absoluteArcSize=1;arcSize=2;" vertex="1" parent="9I3lM_An_QXeY1YcDZqy-2">
          <mxGeometry x="12.5" y="63" width="185" height="60" as="geometry" />
        </mxCell>
        <mxCell id="9I3lM_An_QXeY1YcDZqy-5" value="&lt;font color=&quot;#000000&quot;&gt;Worker 2.1&lt;/font&gt;&lt;br&gt;执行器2.1" style="editableCssRules=.*;html=1;fontColor=#999999;shape=image;verticalLabelPosition=middle;verticalAlign=middle;labelPosition=right;align=left;spacingLeft=20;part=1;points=[];imageAspect=0;image=data:image/svg+xml,PHN2ZyB4bWxucz0iaHR0cDovL3d3dy53My5vcmcvMjAwMC9zdmciIHhtbG5zOnY9Imh0dHBzOi8vdmVjdGEuaW8vbmFubyIgd2lkdGg9IjIwIiBoZWlnaHQ9IjIwIiB2aWV3Qm94PSIwIDAgMjAgMjAiPiYjeGE7CTxzdHlsZSB0eXBlPSJ0ZXh0L2NzcyI+JiN4YTsJLnN0MHtmaWxsOiM0Mjg1ZjQ7fSYjeGE7CS5zdDF7ZmlsbDojNjY5ZGY2O30mI3hhOwkuc3Qye2ZpbGw6I2FlY2JmYTt9JiN4YTsJPC9zdHlsZT4mI3hhOwk8cGF0aCBjbGFzcz0ic3QyIiBkPSJNNyA3aDZ2Nkg3eiIvPiYjeGE7CTxwYXRoIGNsYXNzPSJzdDEiIGQ9Ik05IDBoMnY0SDl6TTUgMGgydjRINXptOCAwaDJ2NGgtMnoiLz4mI3hhOwk8cGF0aCBjbGFzcz0ic3QwIiBkPSJNOSAxNmgydjRIOXptLTQgMGgydjRINXptOCAwaDJ2NGgtMnptMy01VjloNHYyem0wIDR2LTJoNHYyem0wLThWNWg0djJ6Ii8+JiN4YTsJPHBhdGggY2xhc3M9InN0MSIgZD0iTTAgMTFWOWg0djJ6bTAgNHYtMmg0djJ6bTAtOFY1aDR2MnoiLz4mI3hhOwk8cGF0aCBjbGFzcz0ic3QyIiBkPSJNMyAzdjE0aDE0VjN6bTEyIDEySDVWNWgxMHoiLz4mI3hhOwk8cGF0aCBjbGFzcz0ic3QxIiBkPSJNMTAgMTBsLTMgM2g2eiIvPiYjeGE7CTxwYXRoIGNsYXNzPSJzdDAiIGQ9Ik0xMyA3bC0zIDMgMyAzeiIvPiYjeGE7PC9zdmc+;" vertex="1" parent="9I3lM_An_QXeY1YcDZqy-4">
          <mxGeometry width="30" height="30" relative="1" as="geometry">
            <mxPoint x="15" y="15" as="offset" />
          </mxGeometry>
        </mxCell>
        <mxCell id="9I3lM_An_QXeY1YcDZqy-6" value="" style="image;aspect=fixed;html=1;points=[];align=center;fontSize=12;image=img/lib/azure2/analytics/HD_Insight_Clusters.svg;" vertex="1" parent="9I3lM_An_QXeY1YcDZqy-2">
          <mxGeometry x="6" y="5" width="30" height="29.52" as="geometry" />
        </mxCell>
        <mxCell id="9I3lM_An_QXeY1YcDZqy-7" value="APPID: 102" style="text;strokeColor=none;align=center;fillColor=none;html=1;verticalAlign=middle;whiteSpace=wrap;rounded=0;" vertex="1" parent="9I3lM_An_QXeY1YcDZqy-2">
          <mxGeometry x="70" y="33" width="70" height="30" as="geometry" />
        </mxCell>
        <mxCell id="9I3lM_An_QXeY1YcDZqy-8" value="" style="group" vertex="1" connectable="0" parent="1">
          <mxGeometry x="1120" y="424" width="210" height="141.5" as="geometry" />
        </mxCell>
        <mxCell id="9I3lM_An_QXeY1YcDZqy-9" value="&lt;b&gt;业务集群3&lt;/b&gt;" style="fillColor=#F6F6F6;strokeColor=none;shadow=0;gradientColor=none;fontSize=14;align=left;spacing=10;fontColor=#717171;9E9E9E;verticalAlign=top;spacingTop=-4;fontStyle=0;spacingLeft=40;html=1;container=0;" vertex="1" parent="9I3lM_An_QXeY1YcDZqy-8">
          <mxGeometry width="210" height="141.5" as="geometry" />
        </mxCell>
        <mxCell id="9I3lM_An_QXeY1YcDZqy-10" value="" style="strokeColor=#dddddd;shadow=1;strokeWidth=1;rounded=1;absoluteArcSize=1;arcSize=2;" vertex="1" parent="9I3lM_An_QXeY1YcDZqy-8">
          <mxGeometry x="12.5" y="64.5" width="185" height="60" as="geometry" />
        </mxCell>
        <mxCell id="9I3lM_An_QXeY1YcDZqy-11" value="&lt;font color=&quot;#000000&quot;&gt;Worker 3.1&lt;/font&gt;&lt;br&gt;执行器3.1" style="editableCssRules=.*;html=1;fontColor=#999999;shape=image;verticalLabelPosition=middle;verticalAlign=middle;labelPosition=right;align=left;spacingLeft=20;part=1;points=[];imageAspect=0;image=data:image/svg+xml,PHN2ZyB4bWxucz0iaHR0cDovL3d3dy53My5vcmcvMjAwMC9zdmciIHhtbG5zOnY9Imh0dHBzOi8vdmVjdGEuaW8vbmFubyIgd2lkdGg9IjIwIiBoZWlnaHQ9IjIwIiB2aWV3Qm94PSIwIDAgMjAgMjAiPiYjeGE7CTxzdHlsZSB0eXBlPSJ0ZXh0L2NzcyI+JiN4YTsJLnN0MHtmaWxsOiM0Mjg1ZjQ7fSYjeGE7CS5zdDF7ZmlsbDojNjY5ZGY2O30mI3hhOwkuc3Qye2ZpbGw6I2FlY2JmYTt9JiN4YTsJPC9zdHlsZT4mI3hhOwk8cGF0aCBjbGFzcz0ic3QyIiBkPSJNNyA3aDZ2Nkg3eiIvPiYjeGE7CTxwYXRoIGNsYXNzPSJzdDEiIGQ9Ik05IDBoMnY0SDl6TTUgMGgydjRINXptOCAwaDJ2NGgtMnoiLz4mI3hhOwk8cGF0aCBjbGFzcz0ic3QwIiBkPSJNOSAxNmgydjRIOXptLTQgMGgydjRINXptOCAwaDJ2NGgtMnptMy01VjloNHYyem0wIDR2LTJoNHYyem0wLThWNWg0djJ6Ii8+JiN4YTsJPHBhdGggY2xhc3M9InN0MSIgZD0iTTAgMTFWOWg0djJ6bTAgNHYtMmg0djJ6bTAtOFY1aDR2MnoiLz4mI3hhOwk8cGF0aCBjbGFzcz0ic3QyIiBkPSJNMyAzdjE0aDE0VjN6bTEyIDEySDVWNWgxMHoiLz4mI3hhOwk8cGF0aCBjbGFzcz0ic3QxIiBkPSJNMTAgMTBsLTMgM2g2eiIvPiYjeGE7CTxwYXRoIGNsYXNzPSJzdDAiIGQ9Ik0xMyA3bC0zIDMgMyAzeiIvPiYjeGE7PC9zdmc+;" vertex="1" parent="9I3lM_An_QXeY1YcDZqy-10">
          <mxGeometry width="30" height="30" relative="1" as="geometry">
            <mxPoint x="15" y="15" as="offset" />
          </mxGeometry>
        </mxCell>
        <mxCell id="9I3lM_An_QXeY1YcDZqy-12" value="" style="image;aspect=fixed;html=1;points=[];align=center;fontSize=12;image=img/lib/azure2/analytics/HD_Insight_Clusters.svg;" vertex="1" parent="9I3lM_An_QXeY1YcDZqy-8">
          <mxGeometry x="6" y="5" width="30" height="29.52" as="geometry" />
        </mxCell>
        <mxCell id="9I3lM_An_QXeY1YcDZqy-13" value="APPID: 103" style="text;strokeColor=none;align=center;fillColor=none;html=1;verticalAlign=middle;whiteSpace=wrap;rounded=0;" vertex="1" parent="9I3lM_An_QXeY1YcDZqy-8">
          <mxGeometry x="70" y="34.5" width="70" height="30" as="geometry" />
        </mxCell>
        <mxCell id="9I3lM_An_QXeY1YcDZqy-14" value="&lt;b&gt;业务集群1&lt;/b&gt;" style="fillColor=#F6F6F6;strokeColor=none;shadow=0;gradientColor=none;fontSize=14;align=left;spacing=10;fontColor=#717171;9E9E9E;verticalAlign=top;spacingTop=-4;fontStyle=0;spacingLeft=40;html=1;container=0;" vertex="1" parent="1">
          <mxGeometry x="450" y="411" width="210" height="210" as="geometry" />
        </mxCell>
        <mxCell id="9I3lM_An_QXeY1YcDZqy-15" value="" style="strokeColor=#dddddd;shadow=1;strokeWidth=1;rounded=1;absoluteArcSize=1;arcSize=2;" vertex="1" parent="1">
          <mxGeometry x="462" y="550" width="185" height="60" as="geometry" />
        </mxCell>
        <mxCell id="9I3lM_An_QXeY1YcDZqy-16" value="&lt;font color=&quot;#000000&quot;&gt;Worker 1.2&lt;/font&gt;&lt;br&gt;执行器1.2" style="editableCssRules=.*;html=1;fontColor=#999999;shape=image;verticalLabelPosition=middle;verticalAlign=middle;labelPosition=right;align=left;spacingLeft=20;part=1;points=[];imageAspect=0;image=data:image/svg+xml,PHN2ZyB4bWxucz0iaHR0cDovL3d3dy53My5vcmcvMjAwMC9zdmciIHhtbG5zOnY9Imh0dHBzOi8vdmVjdGEuaW8vbmFubyIgd2lkdGg9IjIwIiBoZWlnaHQ9IjIwIiB2aWV3Qm94PSIwIDAgMjAgMjAiPiYjeGE7CTxzdHlsZSB0eXBlPSJ0ZXh0L2NzcyI+JiN4YTsJLnN0MHtmaWxsOiM0Mjg1ZjQ7fSYjeGE7CS5zdDF7ZmlsbDojNjY5ZGY2O30mI3hhOwkuc3Qye2ZpbGw6I2FlY2JmYTt9JiN4YTsJPC9zdHlsZT4mI3hhOwk8cGF0aCBjbGFzcz0ic3QyIiBkPSJNNyA3aDZ2Nkg3eiIvPiYjeGE7CTxwYXRoIGNsYXNzPSJzdDEiIGQ9Ik05IDBoMnY0SDl6TTUgMGgydjRINXptOCAwaDJ2NGgtMnoiLz4mI3hhOwk8cGF0aCBjbGFzcz0ic3QwIiBkPSJNOSAxNmgydjRIOXptLTQgMGgydjRINXptOCAwaDJ2NGgtMnptMy01VjloNHYyem0wIDR2LTJoNHYyem0wLThWNWg0djJ6Ii8+JiN4YTsJPHBhdGggY2xhc3M9InN0MSIgZD0iTTAgMTFWOWg0djJ6bTAgNHYtMmg0djJ6bTAtOFY1aDR2MnoiLz4mI3hhOwk8cGF0aCBjbGFzcz0ic3QyIiBkPSJNMyAzdjE0aDE0VjN6bTEyIDEySDVWNWgxMHoiLz4mI3hhOwk8cGF0aCBjbGFzcz0ic3QxIiBkPSJNMTAgMTBsLTMgM2g2eiIvPiYjeGE7CTxwYXRoIGNsYXNzPSJzdDAiIGQ9Ik0xMyA3bC0zIDMgMyAzeiIvPiYjeGE7PC9zdmc+;" vertex="1" parent="9I3lM_An_QXeY1YcDZqy-15">
          <mxGeometry width="30" height="30" relative="1" as="geometry">
            <mxPoint x="15" y="15" as="offset" />
          </mxGeometry>
        </mxCell>
        <mxCell id="9I3lM_An_QXeY1YcDZqy-17" value="" style="strokeColor=#dddddd;shadow=1;strokeWidth=1;rounded=1;absoluteArcSize=1;arcSize=2;" vertex="1" parent="1">
          <mxGeometry x="462" y="473" width="185" height="60" as="geometry" />
        </mxCell>
        <mxCell id="9I3lM_An_QXeY1YcDZqy-18" value="&lt;font color=&quot;#000000&quot;&gt;Worker 1.1&lt;/font&gt;&lt;br&gt;执行器1.1" style="editableCssRules=.*;html=1;fontColor=#999999;shape=image;verticalLabelPosition=middle;verticalAlign=middle;labelPosition=right;align=left;spacingLeft=20;part=1;points=[];imageAspect=0;image=data:image/svg+xml,PHN2ZyB4bWxucz0iaHR0cDovL3d3dy53My5vcmcvMjAwMC9zdmciIHhtbG5zOnY9Imh0dHBzOi8vdmVjdGEuaW8vbmFubyIgd2lkdGg9IjIwIiBoZWlnaHQ9IjIwIiB2aWV3Qm94PSIwIDAgMjAgMjAiPiYjeGE7CTxzdHlsZSB0eXBlPSJ0ZXh0L2NzcyI+JiN4YTsJLnN0MHtmaWxsOiM0Mjg1ZjQ7fSYjeGE7CS5zdDF7ZmlsbDojNjY5ZGY2O30mI3hhOwkuc3Qye2ZpbGw6I2FlY2JmYTt9JiN4YTsJPC9zdHlsZT4mI3hhOwk8cGF0aCBjbGFzcz0ic3QyIiBkPSJNNyA3aDZ2Nkg3eiIvPiYjeGE7CTxwYXRoIGNsYXNzPSJzdDEiIGQ9Ik05IDBoMnY0SDl6TTUgMGgydjRINXptOCAwaDJ2NGgtMnoiLz4mI3hhOwk8cGF0aCBjbGFzcz0ic3QwIiBkPSJNOSAxNmgydjRIOXptLTQgMGgydjRINXptOCAwaDJ2NGgtMnptMy01VjloNHYyem0wIDR2LTJoNHYyem0wLThWNWg0djJ6Ii8+JiN4YTsJPHBhdGggY2xhc3M9InN0MSIgZD0iTTAgMTFWOWg0djJ6bTAgNHYtMmg0djJ6bTAtOFY1aDR2MnoiLz4mI3hhOwk8cGF0aCBjbGFzcz0ic3QyIiBkPSJNMyAzdjE0aDE0VjN6bTEyIDEySDVWNWgxMHoiLz4mI3hhOwk8cGF0aCBjbGFzcz0ic3QxIiBkPSJNMTAgMTBsLTMgM2g2eiIvPiYjeGE7CTxwYXRoIGNsYXNzPSJzdDAiIGQ9Ik0xMyA3bC0zIDMgMyAzeiIvPiYjeGE7PC9zdmc+;" vertex="1" parent="9I3lM_An_QXeY1YcDZqy-17">
          <mxGeometry width="30" height="30" relative="1" as="geometry">
            <mxPoint x="15" y="15" as="offset" />
          </mxGeometry>
        </mxCell>
        <mxCell id="9I3lM_An_QXeY1YcDZqy-19" value="" style="image;aspect=fixed;html=1;points=[];align=center;fontSize=12;image=img/lib/azure2/analytics/HD_Insight_Clusters.svg;" vertex="1" parent="1">
          <mxGeometry x="456" y="415" width="30" height="29.52" as="geometry" />
        </mxCell>
        <mxCell id="9I3lM_An_QXeY1YcDZqy-20" value="APPID: 101" style="text;strokeColor=none;align=center;fillColor=none;html=1;verticalAlign=middle;whiteSpace=wrap;rounded=0;" vertex="1" parent="1">
          <mxGeometry x="519.5" y="443" width="70" height="30" as="geometry" />
        </mxCell>
        <mxCell id="9I3lM_An_QXeY1YcDZqy-21" value="" style="group" vertex="1" connectable="0" parent="1">
          <mxGeometry x="784" y="433" width="260" height="305" as="geometry" />
        </mxCell>
        <mxCell id="9I3lM_An_QXeY1YcDZqy-22" value="&lt;b&gt;Server集群&lt;/b&gt;" style="fillColor=#F6F6F6;strokeColor=none;shadow=0;gradientColor=none;fontSize=14;align=left;spacing=10;fontColor=#717171;9E9E9E;verticalAlign=top;spacingTop=-4;fontStyle=0;spacingLeft=40;html=1;container=0;" vertex="1" parent="9I3lM_An_QXeY1YcDZqy-21">
          <mxGeometry width="260" height="305" as="geometry" />
        </mxCell>
        <mxCell id="9I3lM_An_QXeY1YcDZqy-23" value="" style="fillColor=#ffffff;strokeColor=#dddddd;shadow=1;strokeWidth=1;rounded=1;absoluteArcSize=1;arcSize=2;" vertex="1" parent="9I3lM_An_QXeY1YcDZqy-21">
          <mxGeometry x="30" y="41" width="200" height="60" as="geometry" />
        </mxCell>
        <mxCell id="9I3lM_An_QXeY1YcDZqy-24" value="&lt;font color=&quot;#000000&quot;&gt;Server 1&lt;/font&gt;&lt;br&gt;主: APPID 103" style="editableCssRules=.*;html=1;fontColor=#999999;shape=image;verticalLabelPosition=middle;verticalAlign=middle;labelPosition=right;align=left;spacingLeft=20;part=1;points=[];imageAspect=0;image=data:image/svg+xml,PHN2ZyB4bWxucz0iaHR0cDovL3d3dy53My5vcmcvMjAwMC9zdmciIHhtbG5zOnY9Imh0dHBzOi8vdmVjdGEuaW8vbmFubyIgd2lkdGg9IjIwIiBoZWlnaHQ9IjE3LjUiIGZpbGwtcnVsZT0iZXZlbm9kZCIgdmlld0JveD0iMCAwIDIwIDE3LjUiPiYjeGE7CTxzdHlsZSB0eXBlPSJ0ZXh0L2NzcyI+JiN4YTsJLnN0MHtmaWxsOiM0Mjg1ZjQ7fSYjeGE7CS5zdDF7ZmlsbDojNjY5ZGY2O30mI3hhOwk8L3N0eWxlPiYjeGE7CTxwYXRoIGNsYXNzPSJzdDAiIGQ9Ik0xOC45MSAxMC42M0wyMCA4Ljc1IDE3LjgyIDVoLTMuMDdsLTEuMDYtMS44NkgxMi41VjEuODhoMS45NGwxLjA2IDEuODdoMS41OUwxNC45IDBoLTQuMjd2NWgxLjczbC43MyAxLjI1aC0yLjQ2djIuNWgyLjI2bDEuMDUtMS44N2gyLjgxbC43MiAxLjI1aC0yLjhMMTMuNjIgMTBoLTIuOTl2NC4zOGgzLjRsLS43MiAxLjI1aC0yLjY4djEuODdoNC4yN2wzLjI4LTUuNjJoLTIuMDlsLS43MyAxLjI1SDEyLjV2LTEuMjVoMi4xNGwuNzQtMS4yNXoiLz4mI3hhOwk8cGF0aCBjbGFzcz0ic3QxIiBkPSJNMS4wOSAxMC42M0wwIDguNzUgMi4xOCA1aDMuMDdsMS4wNi0xLjg2SDcuNVYxLjg4SDUuNTZMNC41IDMuNzVIMi45MUw1LjEgMGg0LjI4djVINy42NGwtLjczIDEuMjVoMi40N3YyLjVINy4xMUw2LjA2IDYuODhIMy4yNWwtLjcyIDEuMjVoMi44TDYuMzggMTBoM3Y0LjM4SDUuOTdsLjcyIDEuMjVoMi42OXYxLjg3SDUuMWwtMy4yOC01LjYyaDIuMDlsLjczIDEuMjVINy41di0xLjI1SDUuMzZsLS43NC0xLjI1eiIvPiYjeGE7PC9zdmc+;" vertex="1" parent="9I3lM_An_QXeY1YcDZqy-23">
          <mxGeometry width="30" height="27" relative="1" as="geometry">
            <mxPoint x="15" y="16.5" as="offset" />
          </mxGeometry>
        </mxCell>
        <mxCell id="9I3lM_An_QXeY1YcDZqy-25" value="" style="fillColor=#ffffff;strokeColor=#dddddd;shadow=1;strokeWidth=1;rounded=1;absoluteArcSize=1;arcSize=2;" vertex="1" parent="9I3lM_An_QXeY1YcDZqy-21">
          <mxGeometry x="30" y="131" width="200" height="60" as="geometry" />
        </mxCell>
        <mxCell id="9I3lM_An_QXeY1YcDZqy-26" value="&lt;font color=&quot;#000000&quot;&gt;Server 2&lt;/font&gt;&lt;br&gt;主: APPID 101, 102" style="editableCssRules=.*;html=1;fontColor=#999999;shape=image;verticalLabelPosition=middle;verticalAlign=middle;labelPosition=right;align=left;spacingLeft=20;part=1;points=[];imageAspect=0;image=data:image/svg+xml,PHN2ZyB4bWxucz0iaHR0cDovL3d3dy53My5vcmcvMjAwMC9zdmciIHhtbG5zOnY9Imh0dHBzOi8vdmVjdGEuaW8vbmFubyIgd2lkdGg9IjIwIiBoZWlnaHQ9IjE3LjUiIGZpbGwtcnVsZT0iZXZlbm9kZCIgdmlld0JveD0iMCAwIDIwIDE3LjUiPiYjeGE7CTxzdHlsZSB0eXBlPSJ0ZXh0L2NzcyI+JiN4YTsJLnN0MHtmaWxsOiM0Mjg1ZjQ7fSYjeGE7CS5zdDF7ZmlsbDojNjY5ZGY2O30mI3hhOwk8L3N0eWxlPiYjeGE7CTxwYXRoIGNsYXNzPSJzdDAiIGQ9Ik0xOC45MSAxMC42M0wyMCA4Ljc1IDE3LjgyIDVoLTMuMDdsLTEuMDYtMS44NkgxMi41VjEuODhoMS45NGwxLjA2IDEuODdoMS41OUwxNC45IDBoLTQuMjd2NWgxLjczbC43MyAxLjI1aC0yLjQ2djIuNWgyLjI2bDEuMDUtMS44N2gyLjgxbC43MiAxLjI1aC0yLjhMMTMuNjIgMTBoLTIuOTl2NC4zOGgzLjRsLS43MiAxLjI1aC0yLjY4djEuODdoNC4yN2wzLjI4LTUuNjJoLTIuMDlsLS43MyAxLjI1SDEyLjV2LTEuMjVoMi4xNGwuNzQtMS4yNXoiLz4mI3hhOwk8cGF0aCBjbGFzcz0ic3QxIiBkPSJNMS4wOSAxMC42M0wwIDguNzUgMi4xOCA1aDMuMDdsMS4wNi0xLjg2SDcuNVYxLjg4SDUuNTZMNC41IDMuNzVIMi45MUw1LjEgMGg0LjI4djVINy42NGwtLjczIDEuMjVoMi40N3YyLjVINy4xMUw2LjA2IDYuODhIMy4yNWwtLjcyIDEuMjVoMi44TDYuMzggMTBoM3Y0LjM4SDUuOTdsLjcyIDEuMjVoMi42OXYxLjg3SDUuMWwtMy4yOC01LjYyaDIuMDlsLjczIDEuMjVINy41di0xLjI1SDUuMzZsLS43NC0xLjI1eiIvPiYjeGE7PC9zdmc+;" vertex="1" parent="9I3lM_An_QXeY1YcDZqy-25">
          <mxGeometry width="30" height="27" relative="1" as="geometry">
            <mxPoint x="15" y="16.5" as="offset" />
          </mxGeometry>
        </mxCell>
        <mxCell id="9I3lM_An_QXeY1YcDZqy-27" value="" style="fillColor=#ffffff;strokeColor=#dddddd;shadow=1;strokeWidth=1;rounded=1;absoluteArcSize=1;arcSize=2;" vertex="1" parent="9I3lM_An_QXeY1YcDZqy-21">
          <mxGeometry x="30" y="221" width="200" height="60" as="geometry" />
        </mxCell>
        <mxCell id="9I3lM_An_QXeY1YcDZqy-28" value="&lt;font color=&quot;#000000&quot;&gt;Server N&lt;/font&gt;" style="editableCssRules=.*;html=1;fontColor=#999999;shape=image;verticalLabelPosition=middle;verticalAlign=middle;labelPosition=right;align=left;spacingLeft=20;part=1;points=[];imageAspect=0;image=data:image/svg+xml,PHN2ZyB4bWxucz0iaHR0cDovL3d3dy53My5vcmcvMjAwMC9zdmciIHhtbG5zOnY9Imh0dHBzOi8vdmVjdGEuaW8vbmFubyIgd2lkdGg9IjIwIiBoZWlnaHQ9IjE3LjUiIGZpbGwtcnVsZT0iZXZlbm9kZCIgdmlld0JveD0iMCAwIDIwIDE3LjUiPiYjeGE7CTxzdHlsZSB0eXBlPSJ0ZXh0L2NzcyI+JiN4YTsJLnN0MHtmaWxsOiM0Mjg1ZjQ7fSYjeGE7CS5zdDF7ZmlsbDojNjY5ZGY2O30mI3hhOwk8L3N0eWxlPiYjeGE7CTxwYXRoIGNsYXNzPSJzdDAiIGQ9Ik0xOC45MSAxMC42M0wyMCA4Ljc1IDE3LjgyIDVoLTMuMDdsLTEuMDYtMS44NkgxMi41VjEuODhoMS45NGwxLjA2IDEuODdoMS41OUwxNC45IDBoLTQuMjd2NWgxLjczbC43MyAxLjI1aC0yLjQ2djIuNWgyLjI2bDEuMDUtMS44N2gyLjgxbC43MiAxLjI1aC0yLjhMMTMuNjIgMTBoLTIuOTl2NC4zOGgzLjRsLS43MiAxLjI1aC0yLjY4djEuODdoNC4yN2wzLjI4LTUuNjJoLTIuMDlsLS43MyAxLjI1SDEyLjV2LTEuMjVoMi4xNGwuNzQtMS4yNXoiLz4mI3hhOwk8cGF0aCBjbGFzcz0ic3QxIiBkPSJNMS4wOSAxMC42M0wwIDguNzUgMi4xOCA1aDMuMDdsMS4wNi0xLjg2SDcuNVYxLjg4SDUuNTZMNC41IDMuNzVIMi45MUw1LjEgMGg0LjI4djVINy42NGwtLjczIDEuMjVoMi40N3YyLjVINy4xMUw2LjA2IDYuODhIMy4yNWwtLjcyIDEuMjVoMi44TDYuMzggMTBoM3Y0LjM4SDUuOTdsLjcyIDEuMjVoMi42OXYxLjg3SDUuMWwtMy4yOC01LjYyaDIuMDlsLjczIDEuMjVINy41di0xLjI1SDUuMzZsLS43NC0xLjI1eiIvPiYjeGE7PC9zdmc+;" vertex="1" parent="9I3lM_An_QXeY1YcDZqy-27">
          <mxGeometry width="30" height="27" relative="1" as="geometry">
            <mxPoint x="15" y="16.5" as="offset" />
          </mxGeometry>
        </mxCell>
        <mxCell id="9I3lM_An_QXeY1YcDZqy-29" value="" style="group;fillColor=#d5e8d4;strokeColor=#82b366;" vertex="1" connectable="0" parent="1">
          <mxGeometry x="1120" y="593" width="210" height="141.5" as="geometry" />
        </mxCell>
        <mxCell id="9I3lM_An_QXeY1YcDZqy-30" value="&lt;b&gt;业务集群4(新加入)&lt;/b&gt;" style="fillColor=#d5e8d4;strokeColor=#82b366;shadow=0;fontSize=14;align=left;spacing=10;9E9E9E;verticalAlign=top;spacingTop=-4;fontStyle=0;spacingLeft=40;html=1;container=0;" vertex="1" parent="9I3lM_An_QXeY1YcDZqy-29">
          <mxGeometry width="210" height="141.5" as="geometry" />
        </mxCell>
        <mxCell id="9I3lM_An_QXeY1YcDZqy-31" value="" style="strokeColor=#dddddd;shadow=1;strokeWidth=1;rounded=1;absoluteArcSize=1;arcSize=2;" vertex="1" parent="9I3lM_An_QXeY1YcDZqy-29">
          <mxGeometry x="12.5" y="64.5" width="185" height="60" as="geometry" />
        </mxCell>
        <mxCell id="9I3lM_An_QXeY1YcDZqy-32" value="&lt;font color=&quot;#000000&quot;&gt;Worker 4.1&lt;/font&gt;&lt;br&gt;执行器4.1" style="editableCssRules=.*;html=1;fontColor=#999999;shape=image;verticalLabelPosition=middle;verticalAlign=middle;labelPosition=right;align=left;spacingLeft=20;part=1;points=[];imageAspect=0;image=data:image/svg+xml,PHN2ZyB4bWxucz0iaHR0cDovL3d3dy53My5vcmcvMjAwMC9zdmciIHhtbG5zOnY9Imh0dHBzOi8vdmVjdGEuaW8vbmFubyIgd2lkdGg9IjIwIiBoZWlnaHQ9IjIwIiB2aWV3Qm94PSIwIDAgMjAgMjAiPiYjeGE7CTxzdHlsZSB0eXBlPSJ0ZXh0L2NzcyI+JiN4YTsJLnN0MHtmaWxsOiM0Mjg1ZjQ7fSYjeGE7CS5zdDF7ZmlsbDojNjY5ZGY2O30mI3hhOwkuc3Qye2ZpbGw6I2FlY2JmYTt9JiN4YTsJPC9zdHlsZT4mI3hhOwk8cGF0aCBjbGFzcz0ic3QyIiBkPSJNNyA3aDZ2Nkg3eiIvPiYjeGE7CTxwYXRoIGNsYXNzPSJzdDEiIGQ9Ik05IDBoMnY0SDl6TTUgMGgydjRINXptOCAwaDJ2NGgtMnoiLz4mI3hhOwk8cGF0aCBjbGFzcz0ic3QwIiBkPSJNOSAxNmgydjRIOXptLTQgMGgydjRINXptOCAwaDJ2NGgtMnptMy01VjloNHYyem0wIDR2LTJoNHYyem0wLThWNWg0djJ6Ii8+JiN4YTsJPHBhdGggY2xhc3M9InN0MSIgZD0iTTAgMTFWOWg0djJ6bTAgNHYtMmg0djJ6bTAtOFY1aDR2MnoiLz4mI3hhOwk8cGF0aCBjbGFzcz0ic3QyIiBkPSJNMyAzdjE0aDE0VjN6bTEyIDEySDVWNWgxMHoiLz4mI3hhOwk8cGF0aCBjbGFzcz0ic3QxIiBkPSJNMTAgMTBsLTMgM2g2eiIvPiYjeGE7CTxwYXRoIGNsYXNzPSJzdDAiIGQ9Ik0xMyA3bC0zIDMgMyAzeiIvPiYjeGE7PC9zdmc+;" vertex="1" parent="9I3lM_An_QXeY1YcDZqy-31">
          <mxGeometry width="30" height="30" relative="1" as="geometry">
            <mxPoint x="15" y="15" as="offset" />
          </mxGeometry>
        </mxCell>
        <mxCell id="9I3lM_An_QXeY1YcDZqy-33" value="" style="image;aspect=fixed;html=1;points=[];align=center;fontSize=12;image=img/lib/azure2/analytics/HD_Insight_Clusters.svg;" vertex="1" parent="9I3lM_An_QXeY1YcDZqy-29">
          <mxGeometry x="6" y="5" width="30" height="29.52" as="geometry" />
        </mxCell>
        <mxCell id="9I3lM_An_QXeY1YcDZqy-34" value="APPID: 104" style="text;strokeColor=none;align=center;fillColor=none;html=1;verticalAlign=middle;whiteSpace=wrap;rounded=0;" vertex="1" parent="9I3lM_An_QXeY1YcDZqy-29">
          <mxGeometry x="70" y="34.5" width="70" height="30" as="geometry" />
        </mxCell>
        <mxCell id="9I3lM_An_QXeY1YcDZqy-35" style="edgeStyle=orthogonalEdgeStyle;rounded=0;orthogonalLoop=1;jettySize=auto;html=1;exitX=1;exitY=0.75;exitDx=0;exitDy=0;entryX=0;entryY=0.25;entryDx=0;entryDy=0;" edge="1" parent="1" source="9I3lM_An_QXeY1YcDZqy-17" target="9I3lM_An_QXeY1YcDZqy-25">
          <mxGeometry relative="1" as="geometry" />
        </mxCell>
        <mxCell id="9I3lM_An_QXeY1YcDZqy-36" value="3. 建立连接" style="edgeLabel;html=1;align=center;verticalAlign=middle;resizable=0;points=[];" vertex="1" connectable="0" parent="9I3lM_An_QXeY1YcDZqy-35">
          <mxGeometry x="-0.2308" y="2" relative="1" as="geometry">
            <mxPoint y="15" as="offset" />
          </mxGeometry>
        </mxCell>
        <mxCell id="9I3lM_An_QXeY1YcDZqy-37" style="edgeStyle=orthogonalEdgeStyle;rounded=0;orthogonalLoop=1;jettySize=auto;html=1;exitX=1;exitY=0.25;exitDx=0;exitDy=0;entryX=0;entryY=0.25;entryDx=0;entryDy=0;dashed=1;" edge="1" parent="1" source="9I3lM_An_QXeY1YcDZqy-17" target="9I3lM_An_QXeY1YcDZqy-23">
          <mxGeometry relative="1" as="geometry" />
        </mxCell>
        <mxCell id="9I3lM_An_QXeY1YcDZqy-38" value="1. 选举" style="edgeLabel;html=1;align=center;verticalAlign=middle;resizable=0;points=[];" vertex="1" connectable="0" parent="9I3lM_An_QXeY1YcDZqy-37">
          <mxGeometry x="-0.2629" relative="1" as="geometry">
            <mxPoint as="offset" />
          </mxGeometry>
        </mxCell>
        <mxCell id="9I3lM_An_QXeY1YcDZqy-39" style="edgeStyle=orthogonalEdgeStyle;rounded=0;orthogonalLoop=1;jettySize=auto;html=1;exitX=0;exitY=0.5;exitDx=0;exitDy=0;entryX=1;entryY=0.5;entryDx=0;entryDy=0;dashed=1;" edge="1" parent="1" source="9I3lM_An_QXeY1YcDZqy-23" target="9I3lM_An_QXeY1YcDZqy-17">
          <mxGeometry relative="1" as="geometry" />
        </mxCell>
        <mxCell id="9I3lM_An_QXeY1YcDZqy-40" value="2. 返回地址" style="edgeLabel;html=1;align=center;verticalAlign=middle;resizable=0;points=[];" vertex="1" connectable="0" parent="9I3lM_An_QXeY1YcDZqy-39">
          <mxGeometry x="0.1737" y="-3" relative="1" as="geometry">
            <mxPoint as="offset" />
          </mxGeometry>
        </mxCell>
        <mxCell id="9I3lM_An_QXeY1YcDZqy-41" style="edgeStyle=orthogonalEdgeStyle;rounded=0;orthogonalLoop=1;jettySize=auto;html=1;exitX=1;exitY=0.75;exitDx=0;exitDy=0;entryX=0;entryY=0.75;entryDx=0;entryDy=0;startArrow=classic;startFill=1;" edge="1" parent="1" source="9I3lM_An_QXeY1YcDZqy-15" target="9I3lM_An_QXeY1YcDZqy-25">
          <mxGeometry relative="1" as="geometry" />
        </mxCell>
        <mxCell id="9I3lM_An_QXeY1YcDZqy-42" value="长连接派发任务" style="edgeLabel;html=1;align=center;verticalAlign=middle;resizable=0;points=[];" vertex="1" connectable="0" parent="9I3lM_An_QXeY1YcDZqy-41">
          <mxGeometry x="-0.2376" y="-2" relative="1" as="geometry">
            <mxPoint as="offset" />
          </mxGeometry>
        </mxCell>
        <mxCell id="9I3lM_An_QXeY1YcDZqy-43" style="edgeStyle=orthogonalEdgeStyle;rounded=0;orthogonalLoop=1;jettySize=auto;html=1;exitX=1;exitY=0.5;exitDx=0;exitDy=0;entryX=0;entryY=1;entryDx=0;entryDy=0;startArrow=classic;startFill=1;" edge="1" parent="1" source="9I3lM_An_QXeY1YcDZqy-4" target="9I3lM_An_QXeY1YcDZqy-25">
          <mxGeometry relative="1" as="geometry">
            <Array as="points">
              <mxPoint x="730" y="723" />
              <mxPoint x="730" y="624" />
            </Array>
          </mxGeometry>
        </mxCell>
        <mxCell id="9I3lM_An_QXeY1YcDZqy-44" value="长链接派发任务" style="edgeLabel;html=1;align=center;verticalAlign=middle;resizable=0;points=[];" vertex="1" connectable="0" parent="9I3lM_An_QXeY1YcDZqy-43">
          <mxGeometry x="0.0885" y="3" relative="1" as="geometry">
            <mxPoint as="offset" />
          </mxGeometry>
        </mxCell>
        <mxCell id="9I3lM_An_QXeY1YcDZqy-45" style="edgeStyle=orthogonalEdgeStyle;rounded=0;orthogonalLoop=1;jettySize=auto;html=1;exitX=0;exitY=0.25;exitDx=0;exitDy=0;entryX=1;entryY=0.5;entryDx=0;entryDy=0;startArrow=classic;startFill=1;" edge="1" parent="1" source="9I3lM_An_QXeY1YcDZqy-10" target="9I3lM_An_QXeY1YcDZqy-23">
          <mxGeometry relative="1" as="geometry" />
        </mxCell>
        <mxCell id="9I3lM_An_QXeY1YcDZqy-46" value="长链接派发任务" style="edgeLabel;html=1;align=center;verticalAlign=middle;resizable=0;points=[];" vertex="1" connectable="0" parent="9I3lM_An_QXeY1YcDZqy-45">
          <mxGeometry x="0.0392" relative="1" as="geometry">
            <mxPoint as="offset" />
          </mxGeometry>
        </mxCell>
        <mxCell id="9I3lM_An_QXeY1YcDZqy-47" style="edgeStyle=orthogonalEdgeStyle;rounded=0;orthogonalLoop=1;jettySize=auto;html=1;entryX=1;entryY=0.5;entryDx=0;entryDy=0;" edge="1" parent="1" source="9I3lM_An_QXeY1YcDZqy-30" target="9I3lM_An_QXeY1YcDZqy-22">
          <mxGeometry relative="1" as="geometry" />
        </mxCell>
        <mxCell id="9I3lM_An_QXeY1YcDZqy-48" value="新加入, 触发选举" style="edgeLabel;html=1;align=center;verticalAlign=middle;resizable=0;points=[];" vertex="1" connectable="0" parent="9I3lM_An_QXeY1YcDZqy-47">
          <mxGeometry x="-0.1342" y="-1" relative="1" as="geometry">
            <mxPoint as="offset" />
          </mxGeometry>
        </mxCell>
        <mxCell id="9I3lM_An_QXeY1YcDZqy-49" value="" style="sketch=0;outlineConnect=0;fontColor=#232F3E;gradientColor=none;fillColor=#8C4FFF;strokeColor=none;dashed=0;verticalLabelPosition=bottom;verticalAlign=top;align=center;html=1;fontSize=12;fontStyle=0;aspect=fixed;pointerEvents=1;shape=mxgraph.aws4.cluster;" vertex="1" parent="1">
          <mxGeometry x="440" y="130" width="40" height="40" as="geometry" />
        </mxCell>
        <mxCell id="9I3lM_An_QXeY1YcDZqy-53" value="" style="group" vertex="1" connectable="0" parent="1">
          <mxGeometry x="640" y="112" width="210" height="250" as="geometry" />
        </mxCell>
        <mxCell id="9I3lM_An_QXeY1YcDZqy-54" value="&lt;b&gt;前端控制台&lt;/b&gt;" style="fillColor=#F6F6F6;strokeColor=none;shadow=0;gradientColor=none;fontSize=14;align=left;spacing=10;fontColor=#717171;9E9E9E;verticalAlign=top;spacingTop=-4;fontStyle=0;spacingLeft=40;html=1;container=0;" vertex="1" parent="9I3lM_An_QXeY1YcDZqy-53">
          <mxGeometry width="210" height="250" as="geometry" />
        </mxCell>
        <mxCell id="9I3lM_An_QXeY1YcDZqy-55" value="" style="strokeColor=#dddddd;shadow=1;strokeWidth=1;rounded=1;absoluteArcSize=1;arcSize=2;" vertex="1" parent="9I3lM_An_QXeY1YcDZqy-53">
          <mxGeometry x="12.5" y="44.5" width="185" height="60" as="geometry" />
        </mxCell>
        <mxCell id="9I3lM_An_QXeY1YcDZqy-59" value="" style="sketch=0;html=1;aspect=fixed;strokeColor=none;shadow=0;fillColor=#3B8DF1;verticalAlign=top;labelPosition=center;verticalLabelPosition=bottom;shape=mxgraph.gcp2.cloud_computer" vertex="1" parent="9I3lM_An_QXeY1YcDZqy-53">
          <mxGeometry x="10" y="8.099999999999994" width="30" height="26.4" as="geometry" />
        </mxCell>
        <mxCell id="9I3lM_An_QXeY1YcDZqy-60" value="" style="strokeColor=#dddddd;shadow=1;strokeWidth=1;rounded=1;absoluteArcSize=1;arcSize=2;" vertex="1" parent="9I3lM_An_QXeY1YcDZqy-53">
          <mxGeometry x="12.5" y="110.5" width="185" height="60" as="geometry" />
        </mxCell>
        <mxCell id="9I3lM_An_QXeY1YcDZqy-62" value="" style="strokeColor=#dddddd;shadow=1;strokeWidth=1;rounded=1;absoluteArcSize=1;arcSize=2;" vertex="1" parent="9I3lM_An_QXeY1YcDZqy-53">
          <mxGeometry x="12.5" y="176.5" width="185" height="60" as="geometry" />
        </mxCell>
        <mxCell id="9I3lM_An_QXeY1YcDZqy-64" value="     超级管理员" style="shape=image;editableCssRules=.*;verticalLabelPosition=middle;labelBackgroundColor=default;verticalAlign=middle;aspect=fixed;imageAspect=0;image=data:image/svg+xml,PHN2ZyB4bWxucz0iaHR0cDovL3d3dy53My5vcmcvMjAwMC9zdmciIHZpZXdCb3g9Ii0wLjUgLTAuNSAyNC4yMzMgMjgiIGhlaWdodD0iMjgiIHdpZHRoPSIyNC4yMzMiPiYjeGE7CSAgPHN0eWxlIHR5cGU9InRleHQvY3NzIj4uc3QwIHsgc3RvcC1jb2xvcjogcmdiKDM1LCAxNDksIDI1NSk7IH0gLnN0MSB7IHN0b3AtY29sb3I6IHJnYigwLCA4NywgMjEwKTsgfSA8L3N0eWxlPiYjeGE7CTxkZWZzPiYjeGE7CQk8bGluZWFyR3JhZGllbnQgZ3JhZGllbnRVbml0cz0idXNlclNwYWNlT25Vc2UiIHkyPSIyMi4yMjkiIHgyPSIyMi45NSIgeTE9IjMuNDc0IiB4MT0iMS42OTgiIGlkPSJBIj4mI3hhOwkJCTxzdG9wIGNsYXNzPSJzdDAiLz4mI3hhOwkJCTxzdG9wIGNsYXNzPSJzdDEiIG9mZnNldD0iMSIvPiYjeGE7CQk8L2xpbmVhckdyYWRpZW50PiYjeGE7CTwvZGVmcz4mI3hhOwk8cGF0aCBmaWxsPSJ1cmwoI0EpIiBkPSJNMTUuNTUyIDExLjYwOGwtLjkzMS0uNDM4aC4wMDJhNy4wMyA3LjAzIDAgMCAwIDEuNDgtMi4xOTJjLjQwMS0uODQuNjAzLTEuNzUzLjYwMy0yLjczOSAwLS45NS0uMTg0LTEuODI3LS41NDktMi42M2E2LjQ1IDYuNDUgMCAwIDAtMS40MjQtMi4xMzdDMTQuMTExLjg1MiAxMy4zOTkuMzc3IDEyLjU5Ni4wNDlBNi4yNyA2LjI3IDAgMCAwIDkuOTY2LS41Yy0uOTE0IDAtMS43OS4xODItMi42My41NDdhNi4zMiA2LjMyIDAgMCAwLTIuMTkyIDEuNDI1QTcuOCA3LjggMCAwIDAgMy43MTkgMy42MWMtLjM2NS44MDMtLjU0NyAxLjY4LS41NDcgMi42M2E2LjYzIDYuNjMgMCAwIDAgLjYwMSAyLjc5M2MuMzk3LjgzMy45NTYgMS41NzggMS42NDUgMi4xOTItMS43NTMuNjk0LTMuMTc3IDEuODQ2LTQuMjczIDMuNDUyQy4wNDkgMTYuMjQ4LS41IDE4LjA1NS0uNSAyMC4xMDF2Mi43NGMtLjAwOS4zNC4xMDguNjcyLjMyOC45MzFhMS4zOCAxLjM4IDAgMCAwIC45MzMuMzI4aDkuMzFjLjE1Mi4wMDQuMzA0LS4wMjMuNDQ1LS4wOHMuMjctLjE0Mi4zNzctLjI1YTEuMjcgMS4yNyAwIDAgMCAuMzg0LS45MjkgMS4wNCAxLjA0IDAgMCAwLS4zODQtLjgyMmMtLjIxOS0uMjU2LS40OTMtLjM4NC0uODIyLS4zODRIMS45NjZ2LTEuNTM0YzAtLjk4Ny4xNjMtMS44OTkuNDkxLTIuNzQuMzQxLS44MzkuODQzLTEuNjAyIDEuNDgtMi4yNDYuNjIxLS42NTggMS4zMzQtMS4xNjggMi4xMzctMS41MzRhNi42NyA2LjY3IDAgMCAxIDIuNjg0LS41NDdoMi42M2MuODA2LS4wMDYgMS42MDYuMTQyIDIuMzU3LjQzOC43NjYuMjU2IDEuMzY5LjU4NCAxLjgwOC45ODdhMi41OCAyLjU4IDAgMCAwIC42NTcuNDkxYy4xOTguMDY3LjM5OS4xMjIuNjAzLjE2NS4yOTMgMCAuNTY2LS4xMjguODIyLS4zODIuMTgyLS4xODIuMjczLS4zODQuMjczLS42MDN2LS4xNjVjLS4wMDgtLjM0Ny0uMTQ1LS42NzktLjM4NC0uOTMxYTUuMTggNS4xOCAwIDAgMC0uOTMxLS44MjIgNC4zMSA0LjMxIDAgMCAwLTEuMDQxLS42MDN6bS0yLjU3Ni0yLjMwMmMtLjgzOC44NDItMS44NDQgMS4yNjItMy4wMTIgMS4yNjJ2LS4wMDJjLTEuMTY5IDAtMi4xOTItLjQxOS0zLjA2OC0xLjI1OUE0LjE4IDQuMTggMCAwIDEgNS42MzUgNi4yNGE0LjExIDQuMTEgMCAwIDEgMS4yNjEtMy4wMTRjLjg3Ny0uODQgMS44OTktMS4yNjEgMy4wNjgtMS4yNjFhNC4xMSA0LjExIDAgMCAxIDMuMDEyIDEuMjYxYy44NzcuODQgMS4zMTUgMS44NDQgMS4zMTUgMy4wMTJhNC4wOCA0LjA4IDAgMCAxLTEuMzE1IDMuMDY4em0uMTUxIDE2LjMwOWEuODUuODUgMCAwIDEgLjIxMy0uNTdsNC4wMDEtNC4xNDJjLS4wOTUtLjMxNC0uMTQyLS42MzctLjE0Mi0uOTY3YTMuNjEgMy42MSAwIDAgMSAuMjYtMS4zNjRjLjE3NC0uNDMuNDE4LS44MDIuNzM0LTEuMTE2YTMuMTQgMy4xNCAwIDAgMSAxLjA2NS0uNzY5Yy4zOTUtLjE5OC44MjktLjI5OCAxLjMwMi0uMjk4YTMuMDkgMy4wOSAwIDAgMSAxLjk2NS42N2MuNTY4LjQzLjk3MS45OTIgMS4yMDcgMS42ODZIMjAuOTRjLS4yMjEgMC0uNDM0LjA3NC0uNjM5LjIyMy0uMjIxLjE0OS0uMzMxLjMzOS0uMzMxLjU3di43OTRjMCAuMjMyLjExLjQzLjMzMS41OTUuMjA1LjE0OS40MTguMjIzLjYzOS4yMjNoMi43OTRjLS4yMzcuNjYxLS42MzkgMS4yMTUtMS4yMDcgMS42NjItLjU2OC40My0xLjIyMy42NDUtMS45NjUuNjQ1LS40NTggMC0uODY4LS4wODMtMS4yMzEtLjI0OGwtMy44NTkgNC4wNjdhLjcyLjcyIDAgMCAxLS41NDQuMjIzYy0uMTg5IDAtLjM1NS0uMDc0LS40OTctLjIyM2wtMS4wODktMS4xNDFhLjczLjczIDAgMCAxLS4yMTMtLjUyMXoiIGZpbGwtcnVsZT0iZXZlbm9kZCIvPiYjeGE7PC9zdmc+;labelPosition=right;align=left;" vertex="1" parent="9I3lM_An_QXeY1YcDZqy-53">
          <mxGeometry x="52" y="60.5" width="24" height="28" as="geometry" />
        </mxCell>
        <mxCell id="9I3lM_An_QXeY1YcDZqy-65" value="      应用管理员" style="shape=image;editableCssRules=.*;verticalLabelPosition=middle;labelBackgroundColor=default;verticalAlign=middle;aspect=fixed;imageAspect=0;image=data:image/svg+xml,PHN2ZyB4bWxucz0iaHR0cDovL3d3dy53My5vcmcvMjAwMC9zdmciIHZpZXdCb3g9Ii0wLjUgLTAuNSAyNC4yMzMgMjgiIGhlaWdodD0iMjgiIHdpZHRoPSIyNC4yMzMiPiYjeGE7CSAgPHN0eWxlIHR5cGU9InRleHQvY3NzIj4mI3hhOwkJLnN0MHtzdG9wLWNvbG9yOiMwMGNlYWM7fSYjeGE7CQkuc3Qxe3N0b3AtY29sb3I6IzA3ODM4Zjt9JiN4YTsJICA8L3N0eWxlPiYjeGE7CTxkZWZzPiYjeGE7CQk8bGluZWFyR3JhZGllbnQgZ3JhZGllbnRVbml0cz0idXNlclNwYWNlT25Vc2UiIHkyPSIyMi4yMjkiIHgyPSIyMi45NSIgeTE9IjMuNDc0IiB4MT0iMS42OTgiIGlkPSJBIj4mI3hhOwkJCTxzdG9wIGNsYXNzPSJzdDAiLz4mI3hhOwkJCTxzdG9wIGNsYXNzPSJzdDEiIG9mZnNldD0iMSIvPiYjeGE7CQk8L2xpbmVhckdyYWRpZW50PiYjeGE7CTwvZGVmcz4mI3hhOwk8cGF0aCBmaWxsPSJ1cmwoI0EpIiBkPSJNMTUuNTUyIDExLjYwOGwtLjkzMS0uNDM4aC4wMDJhNy4wMyA3LjAzIDAgMCAwIDEuNDgtMi4xOTJjLjQwMS0uODQuNjAzLTEuNzUzLjYwMy0yLjczOSAwLS45NS0uMTg0LTEuODI3LS41NDktMi42M2E2LjQ1IDYuNDUgMCAwIDAtMS40MjQtMi4xMzdDMTQuMTExLjg1MiAxMy4zOTkuMzc3IDEyLjU5Ni4wNDlBNi4yNyA2LjI3IDAgMCAwIDkuOTY2LS41Yy0uOTE0IDAtMS43OS4xODItMi42My41NDdhNi4zMiA2LjMyIDAgMCAwLTIuMTkyIDEuNDI1QTcuOCA3LjggMCAwIDAgMy43MTkgMy42MWMtLjM2NS44MDMtLjU0NyAxLjY4LS41NDcgMi42M2E2LjYzIDYuNjMgMCAwIDAgLjYwMSAyLjc5M2MuMzk3LjgzMy45NTYgMS41NzggMS42NDUgMi4xOTItMS43NTMuNjk0LTMuMTc3IDEuODQ2LTQuMjczIDMuNDUyQy4wNDkgMTYuMjQ4LS41IDE4LjA1NS0uNSAyMC4xMDF2Mi43NGMtLjAwOS4zNC4xMDguNjcyLjMyOC45MzFhMS4zOCAxLjM4IDAgMCAwIC45MzMuMzI4aDkuMzFjLjE1Mi4wMDQuMzA0LS4wMjMuNDQ1LS4wOHMuMjctLjE0Mi4zNzctLjI1YTEuMjcgMS4yNyAwIDAgMCAuMzg0LS45MjkgMS4wNCAxLjA0IDAgMCAwLS4zODQtLjgyMmMtLjIxOS0uMjU2LS40OTMtLjM4NC0uODIyLS4zODRIMS45NjZ2LTEuNTM0YzAtLjk4Ny4xNjMtMS44OTkuNDkxLTIuNzQuMzQxLS44MzkuODQzLTEuNjAyIDEuNDgtMi4yNDYuNjIxLS42NTggMS4zMzQtMS4xNjggMi4xMzctMS41MzRhNi42NyA2LjY3IDAgMCAxIDIuNjg0LS41NDdoMi42M2MuODA2LS4wMDYgMS42MDYuMTQyIDIuMzU3LjQzOC43NjYuMjU2IDEuMzY5LjU4NCAxLjgwOC45ODdhMi41OCAyLjU4IDAgMCAwIC42NTcuNDkxYy4xOTguMDY3LjM5OS4xMjIuNjAzLjE2NS4yOTMgMCAuNTY2LS4xMjguODIyLS4zODIuMTgyLS4xODIuMjczLS4zODQuMjczLS42MDN2LS4xNjVjLS4wMDgtLjM0Ny0uMTQ1LS42NzktLjM4NC0uOTMxYTUuMTggNS4xOCAwIDAgMC0uOTMxLS44MjIgNC4zMSA0LjMxIDAgMCAwLTEuMDQxLS42MDN6bS0yLjU3Ni0yLjMwMmMtLjgzOC44NDItMS44NDQgMS4yNjItMy4wMTIgMS4yNjJ2LS4wMDJjLTEuMTY5IDAtMi4xOTItLjQxOS0zLjA2OC0xLjI1OUE0LjE4IDQuMTggMCAwIDEgNS42MzUgNi4yNGE0LjExIDQuMTEgMCAwIDEgMS4yNjEtMy4wMTRjLjg3Ny0uODQgMS44OTktMS4yNjEgMy4wNjgtMS4yNjFhNC4xMSA0LjExIDAgMCAxIDMuMDEyIDEuMjYxYy44NzcuODQgMS4zMTUgMS44NDQgMS4zMTUgMy4wMTJhNC4wOCA0LjA4IDAgMCAxLTEuMzE1IDMuMDY4em0uMTUxIDE2LjMwOWEuODUuODUgMCAwIDEgLjIxMy0uNTdsNC4wMDEtNC4xNDJjLS4wOTUtLjMxNC0uMTQyLS42MzctLjE0Mi0uOTY3YTMuNjEgMy42MSAwIDAgMSAuMjYtMS4zNjRjLjE3NC0uNDMuNDE4LS44MDIuNzM0LTEuMTE2YTMuMTQgMy4xNCAwIDAgMSAxLjA2NS0uNzY5Yy4zOTUtLjE5OC44MjktLjI5OCAxLjMwMi0uMjk4YTMuMDkgMy4wOSAwIDAgMSAxLjk2NS42N2MuNTY4LjQzLjk3MS45OTIgMS4yMDcgMS42ODZIMjAuOTRjLS4yMjEgMC0uNDM0LjA3NC0uNjM5LjIyMy0uMjIxLjE0OS0uMzMxLjMzOS0uMzMxLjU3di43OTRjMCAuMjMyLjExLjQzLjMzMS41OTUuMjA1LjE0OS40MTguMjIzLjYzOS4yMjNoMi43OTRjLS4yMzcuNjYxLS42MzkgMS4yMTUtMS4yMDcgMS42NjItLjU2OC40My0xLjIyMy42NDUtMS45NjUuNjQ1LS40NTggMC0uODY4LS4wODMtMS4yMzEtLjI0OGwtMy44NTkgNC4wNjdhLjcyLjcyIDAgMCAxLS41NDQuMjIzYy0uMTg5IDAtLjM1NS0uMDc0LS40OTctLjIyM2wtMS4wODktMS4xNDFhLjczLjczIDAgMCAxLS4yMTMtLjUyMXoiIGZpbGwtcnVsZT0iZXZlbm9kZCIvPiYjeGE7PC9zdmc+;labelPosition=right;align=left;" vertex="1" parent="9I3lM_An_QXeY1YcDZqy-53">
          <mxGeometry x="52" y="126.5" width="24" height="28" as="geometry" />
        </mxCell>
        <mxCell id="9I3lM_An_QXeY1YcDZqy-66" value="      普通用户" style="shape=image;editableCssRules=.*;verticalLabelPosition=middle;labelBackgroundColor=default;verticalAlign=middle;aspect=fixed;imageAspect=0;image=data:image/svg+xml,PHN2ZyB4bWxucz0iaHR0cDovL3d3dy53My5vcmcvMjAwMC9zdmciIHZpZXdCb3g9Ii0wLjUgLTAuNSAyNC4yMzMgMjgiIGhlaWdodD0iMjgiIHdpZHRoPSIyNC4yMzMiPiYjeGE7CSAgPHN0eWxlIHR5cGU9InRleHQvY3NzIj4uc3QwIHsgc3RvcC1jb2xvcjogcmdiKDkxLCAxMTUsIDEzOSk7IH0gLnN0MSB7IHN0b3AtY29sb3I6IHJnYigzNCwgNTMsIDcyKTsgfSA8L3N0eWxlPiYjeGE7CTxkZWZzPiYjeGE7CQk8bGluZWFyR3JhZGllbnQgZ3JhZGllbnRVbml0cz0idXNlclNwYWNlT25Vc2UiIHkyPSIyMi4yMjkiIHgyPSIyMi45NSIgeTE9IjMuNDc0IiB4MT0iMS42OTgiIGlkPSJBIj4mI3hhOwkJCTxzdG9wIGNsYXNzPSJzdDAiLz4mI3hhOwkJCTxzdG9wIGNsYXNzPSJzdDEiIG9mZnNldD0iMSIvPiYjeGE7CQk8L2xpbmVhckdyYWRpZW50PiYjeGE7CTwvZGVmcz4mI3hhOwk8cGF0aCBmaWxsPSJ1cmwoI0EpIiBkPSJNMTUuNTUyIDExLjYwOGwtLjkzMS0uNDM4aC4wMDJhNy4wMyA3LjAzIDAgMCAwIDEuNDgtMi4xOTJjLjQwMS0uODQuNjAzLTEuNzUzLjYwMy0yLjczOSAwLS45NS0uMTg0LTEuODI3LS41NDktMi42M2E2LjQ1IDYuNDUgMCAwIDAtMS40MjQtMi4xMzdDMTQuMTExLjg1MiAxMy4zOTkuMzc3IDEyLjU5Ni4wNDlBNi4yNyA2LjI3IDAgMCAwIDkuOTY2LS41Yy0uOTE0IDAtMS43OS4xODItMi42My41NDdhNi4zMiA2LjMyIDAgMCAwLTIuMTkyIDEuNDI1QTcuOCA3LjggMCAwIDAgMy43MTkgMy42MWMtLjM2NS44MDMtLjU0NyAxLjY4LS41NDcgMi42M2E2LjYzIDYuNjMgMCAwIDAgLjYwMSAyLjc5M2MuMzk3LjgzMy45NTYgMS41NzggMS42NDUgMi4xOTItMS43NTMuNjk0LTMuMTc3IDEuODQ2LTQuMjczIDMuNDUyQy4wNDkgMTYuMjQ4LS41IDE4LjA1NS0uNSAyMC4xMDF2Mi43NGMtLjAwOS4zNC4xMDguNjcyLjMyOC45MzFhMS4zOCAxLjM4IDAgMCAwIC45MzMuMzI4aDkuMzFjLjE1Mi4wMDQuMzA0LS4wMjMuNDQ1LS4wOHMuMjctLjE0Mi4zNzctLjI1YTEuMjcgMS4yNyAwIDAgMCAuMzg0LS45MjkgMS4wNCAxLjA0IDAgMCAwLS4zODQtLjgyMmMtLjIxOS0uMjU2LS40OTMtLjM4NC0uODIyLS4zODRIMS45NjZ2LTEuNTM0YzAtLjk4Ny4xNjMtMS44OTkuNDkxLTIuNzQuMzQxLS44MzkuODQzLTEuNjAyIDEuNDgtMi4yNDYuNjIxLS42NTggMS4zMzQtMS4xNjggMi4xMzctMS41MzRhNi42NyA2LjY3IDAgMCAxIDIuNjg0LS41NDdoMi42M2MuODA2LS4wMDYgMS42MDYuMTQyIDIuMzU3LjQzOC43NjYuMjU2IDEuMzY5LjU4NCAxLjgwOC45ODdhMi41OCAyLjU4IDAgMCAwIC42NTcuNDkxYy4xOTguMDY3LjM5OS4xMjIuNjAzLjE2NS4yOTMgMCAuNTY2LS4xMjguODIyLS4zODIuMTgyLS4xODIuMjczLS4zODQuMjczLS42MDN2LS4xNjVjLS4wMDgtLjM0Ny0uMTQ1LS42NzktLjM4NC0uOTMxYTUuMTggNS4xOCAwIDAgMC0uOTMxLS44MjIgNC4zMSA0LjMxIDAgMCAwLTEuMDQxLS42MDN6bS0yLjU3Ni0yLjMwMmMtLjgzOC44NDItMS44NDQgMS4yNjItMy4wMTIgMS4yNjJ2LS4wMDJjLTEuMTY5IDAtMi4xOTItLjQxOS0zLjA2OC0xLjI1OUE0LjE4IDQuMTggMCAwIDEgNS42MzUgNi4yNGE0LjExIDQuMTEgMCAwIDEgMS4yNjEtMy4wMTRjLjg3Ny0uODQgMS44OTktMS4yNjEgMy4wNjgtMS4yNjFhNC4xMSA0LjExIDAgMCAxIDMuMDEyIDEuMjYxYy44NzcuODQgMS4zMTUgMS44NDQgMS4zMTUgMy4wMTJhNC4wOCA0LjA4IDAgMCAxLTEuMzE1IDMuMDY4em0uMTUxIDE2LjMwOWEuODUuODUgMCAwIDEgLjIxMy0uNTdsNC4wMDEtNC4xNDJjLS4wOTUtLjMxNC0uMTQyLS42MzctLjE0Mi0uOTY3YTMuNjEgMy42MSAwIDAgMSAuMjYtMS4zNjRjLjE3NC0uNDMuNDE4LS44MDIuNzM0LTEuMTE2YTMuMTQgMy4xNCAwIDAgMSAxLjA2NS0uNzY5Yy4zOTUtLjE5OC44MjktLjI5OCAxLjMwMi0uMjk4YTMuMDkgMy4wOSAwIDAgMSAxLjk2NS42N2MuNTY4LjQzLjk3MS45OTIgMS4yMDcgMS42ODZIMjAuOTRjLS4yMjEgMC0uNDM0LjA3NC0uNjM5LjIyMy0uMjIxLjE0OS0uMzMxLjMzOS0uMzMxLjU3di43OTRjMCAuMjMyLjExLjQzLjMzMS41OTUuMjA1LjE0OS40MTguMjIzLjYzOS4yMjNoMi43OTRjLS4yMzcuNjYxLS42MzkgMS4yMTUtMS4yMDcgMS42NjItLjU2OC40My0xLjIyMy42NDUtMS45NjUuNjQ1LS40NTggMC0uODY4LS4wODMtMS4yMzEtLjI0OGwtMy44NTkgNC4wNjdhLjcyLjcyIDAgMCAxLS41NDQuMjIzYy0uMTg5IDAtLjM1NS0uMDc0LS40OTctLjIyM2wtMS4wODktMS4xNDFhLjczLjczIDAgMCAxLS4yMTMtLjUyMXoiIGZpbGwtcnVsZT0iZXZlbm9kZCIvPiYjeGE7PC9zdmc+;labelPosition=right;align=left;" vertex="1" parent="9I3lM_An_QXeY1YcDZqy-53">
          <mxGeometry x="52" y="192.5" width="24" height="28" as="geometry" />
        </mxCell>
        <mxCell id="9I3lM_An_QXeY1YcDZqy-69" style="edgeStyle=orthogonalEdgeStyle;rounded=0;orthogonalLoop=1;jettySize=auto;html=1;entryX=0.25;entryY=0;entryDx=0;entryDy=0;dashed=1;" edge="1" parent="1" source="9I3lM_An_QXeY1YcDZqy-62" target="9I3lM_An_QXeY1YcDZqy-22">
          <mxGeometry relative="1" as="geometry" />
        </mxCell>
        <mxCell id="9I3lM_An_QXeY1YcDZqy-70" value="操作" style="edgeLabel;html=1;align=center;verticalAlign=middle;resizable=0;points=[];" vertex="1" connectable="0" parent="9I3lM_An_QXeY1YcDZqy-69">
          <mxGeometry x="-0.1798" y="-1" relative="1" as="geometry">
            <mxPoint as="offset" />
          </mxGeometry>
        </mxCell>
        <mxCell id="9I3lM_An_QXeY1YcDZqy-71" value="" style="group" vertex="1" connectable="0" parent="1">
          <mxGeometry x="940" y="110" width="210" height="250" as="geometry" />
        </mxCell>
        <mxCell id="9I3lM_An_QXeY1YcDZqy-72" value="&lt;b&gt;应急调度器&lt;/b&gt;" style="fillColor=#F6F6F6;strokeColor=none;shadow=0;gradientColor=none;fontSize=14;align=left;spacing=10;fontColor=#717171;9E9E9E;verticalAlign=top;spacingTop=-4;fontStyle=0;spacingLeft=40;html=1;container=0;" vertex="1" parent="9I3lM_An_QXeY1YcDZqy-71">
          <mxGeometry width="210" height="250" as="geometry" />
        </mxCell>
        <mxCell id="9I3lM_An_QXeY1YcDZqy-73" value="" style="strokeColor=#dddddd;shadow=1;strokeWidth=1;rounded=1;absoluteArcSize=1;arcSize=2;" vertex="1" parent="9I3lM_An_QXeY1YcDZqy-71">
          <mxGeometry x="12.5" y="44.5" width="185" height="60" as="geometry" />
        </mxCell>
        <mxCell id="9I3lM_An_QXeY1YcDZqy-74" value="" style="sketch=0;html=1;aspect=fixed;strokeColor=none;shadow=0;fillColor=#3B8DF1;verticalAlign=top;labelPosition=center;verticalLabelPosition=bottom;shape=mxgraph.gcp2.cloud_computer" vertex="1" parent="9I3lM_An_QXeY1YcDZqy-71">
          <mxGeometry x="10" y="8.099999999999994" width="30" height="26.4" as="geometry" />
        </mxCell>
        <mxCell id="9I3lM_An_QXeY1YcDZqy-77" value="     超级管理员" style="shape=image;editableCssRules=.*;verticalLabelPosition=middle;labelBackgroundColor=default;verticalAlign=middle;aspect=fixed;imageAspect=0;image=data:image/svg+xml,PHN2ZyB4bWxucz0iaHR0cDovL3d3dy53My5vcmcvMjAwMC9zdmciIHZpZXdCb3g9Ii0wLjUgLTAuNSAyNC4yMzMgMjgiIGhlaWdodD0iMjgiIHdpZHRoPSIyNC4yMzMiPiYjeGE7CSAgPHN0eWxlIHR5cGU9InRleHQvY3NzIj4uc3QwIHsgc3RvcC1jb2xvcjogcmdiKDM1LCAxNDksIDI1NSk7IH0gLnN0MSB7IHN0b3AtY29sb3I6IHJnYigwLCA4NywgMjEwKTsgfSA8L3N0eWxlPiYjeGE7CTxkZWZzPiYjeGE7CQk8bGluZWFyR3JhZGllbnQgZ3JhZGllbnRVbml0cz0idXNlclNwYWNlT25Vc2UiIHkyPSIyMi4yMjkiIHgyPSIyMi45NSIgeTE9IjMuNDc0IiB4MT0iMS42OTgiIGlkPSJBIj4mI3hhOwkJCTxzdG9wIGNsYXNzPSJzdDAiLz4mI3hhOwkJCTxzdG9wIGNsYXNzPSJzdDEiIG9mZnNldD0iMSIvPiYjeGE7CQk8L2xpbmVhckdyYWRpZW50PiYjeGE7CTwvZGVmcz4mI3hhOwk8cGF0aCBmaWxsPSJ1cmwoI0EpIiBkPSJNMTUuNTUyIDExLjYwOGwtLjkzMS0uNDM4aC4wMDJhNy4wMyA3LjAzIDAgMCAwIDEuNDgtMi4xOTJjLjQwMS0uODQuNjAzLTEuNzUzLjYwMy0yLjczOSAwLS45NS0uMTg0LTEuODI3LS41NDktMi42M2E2LjQ1IDYuNDUgMCAwIDAtMS40MjQtMi4xMzdDMTQuMTExLjg1MiAxMy4zOTkuMzc3IDEyLjU5Ni4wNDlBNi4yNyA2LjI3IDAgMCAwIDkuOTY2LS41Yy0uOTE0IDAtMS43OS4xODItMi42My41NDdhNi4zMiA2LjMyIDAgMCAwLTIuMTkyIDEuNDI1QTcuOCA3LjggMCAwIDAgMy43MTkgMy42MWMtLjM2NS44MDMtLjU0NyAxLjY4LS41NDcgMi42M2E2LjYzIDYuNjMgMCAwIDAgLjYwMSAyLjc5M2MuMzk3LjgzMy45NTYgMS41NzggMS42NDUgMi4xOTItMS43NTMuNjk0LTMuMTc3IDEuODQ2LTQuMjczIDMuNDUyQy4wNDkgMTYuMjQ4LS41IDE4LjA1NS0uNSAyMC4xMDF2Mi43NGMtLjAwOS4zNC4xMDguNjcyLjMyOC45MzFhMS4zOCAxLjM4IDAgMCAwIC45MzMuMzI4aDkuMzFjLjE1Mi4wMDQuMzA0LS4wMjMuNDQ1LS4wOHMuMjctLjE0Mi4zNzctLjI1YTEuMjcgMS4yNyAwIDAgMCAuMzg0LS45MjkgMS4wNCAxLjA0IDAgMCAwLS4zODQtLjgyMmMtLjIxOS0uMjU2LS40OTMtLjM4NC0uODIyLS4zODRIMS45NjZ2LTEuNTM0YzAtLjk4Ny4xNjMtMS44OTkuNDkxLTIuNzQuMzQxLS44MzkuODQzLTEuNjAyIDEuNDgtMi4yNDYuNjIxLS42NTggMS4zMzQtMS4xNjggMi4xMzctMS41MzRhNi42NyA2LjY3IDAgMCAxIDIuNjg0LS41NDdoMi42M2MuODA2LS4wMDYgMS42MDYuMTQyIDIuMzU3LjQzOC43NjYuMjU2IDEuMzY5LjU4NCAxLjgwOC45ODdhMi41OCAyLjU4IDAgMCAwIC42NTcuNDkxYy4xOTguMDY3LjM5OS4xMjIuNjAzLjE2NS4yOTMgMCAuNTY2LS4xMjguODIyLS4zODIuMTgyLS4xODIuMjczLS4zODQuMjczLS42MDN2LS4xNjVjLS4wMDgtLjM0Ny0uMTQ1LS42NzktLjM4NC0uOTMxYTUuMTggNS4xOCAwIDAgMC0uOTMxLS44MjIgNC4zMSA0LjMxIDAgMCAwLTEuMDQxLS42MDN6bS0yLjU3Ni0yLjMwMmMtLjgzOC44NDItMS44NDQgMS4yNjItMy4wMTIgMS4yNjJ2LS4wMDJjLTEuMTY5IDAtMi4xOTItLjQxOS0zLjA2OC0xLjI1OUE0LjE4IDQuMTggMCAwIDEgNS42MzUgNi4yNGE0LjExIDQuMTEgMCAwIDEgMS4yNjEtMy4wMTRjLjg3Ny0uODQgMS44OTktMS4yNjEgMy4wNjgtMS4yNjFhNC4xMSA0LjExIDAgMCAxIDMuMDEyIDEuMjYxYy44NzcuODQgMS4zMTUgMS44NDQgMS4zMTUgMy4wMTJhNC4wOCA0LjA4IDAgMCAxLTEuMzE1IDMuMDY4em0uMTUxIDE2LjMwOWEuODUuODUgMCAwIDEgLjIxMy0uNTdsNC4wMDEtNC4xNDJjLS4wOTUtLjMxNC0uMTQyLS42MzctLjE0Mi0uOTY3YTMuNjEgMy42MSAwIDAgMSAuMjYtMS4zNjRjLjE3NC0uNDMuNDE4LS44MDIuNzM0LTEuMTE2YTMuMTQgMy4xNCAwIDAgMSAxLjA2NS0uNzY5Yy4zOTUtLjE5OC44MjktLjI5OCAxLjMwMi0uMjk4YTMuMDkgMy4wOSAwIDAgMSAxLjk2NS42N2MuNTY4LjQzLjk3MS45OTIgMS4yMDcgMS42ODZIMjAuOTRjLS4yMjEgMC0uNDM0LjA3NC0uNjM5LjIyMy0uMjIxLjE0OS0uMzMxLjMzOS0uMzMxLjU3di43OTRjMCAuMjMyLjExLjQzLjMzMS41OTUuMjA1LjE0OS40MTguMjIzLjYzOS4yMjNoMi43OTRjLS4yMzcuNjYxLS42MzkgMS4yMTUtMS4yMDcgMS42NjItLjU2OC40My0xLjIyMy42NDUtMS45NjUuNjQ1LS40NTggMC0uODY4LS4wODMtMS4yMzEtLjI0OGwtMy44NTkgNC4wNjdhLjcyLjcyIDAgMCAxLS41NDQuMjIzYy0uMTg5IDAtLjM1NS0uMDc0LS40OTctLjIyM2wtMS4wODktMS4xNDFhLjczLjczIDAgMCAxLS4yMTMtLjUyMXoiIGZpbGwtcnVsZT0iZXZlbm9kZCIvPiYjeGE7PC9zdmc+;labelPosition=right;align=left;" vertex="1" parent="9I3lM_An_QXeY1YcDZqy-71">
          <mxGeometry x="52" y="60.5" width="24" height="28" as="geometry" />
        </mxCell>
      </root>
    </mxGraphModel>
  </diagram>
</mxfile>
